<svg width="128" height="128" viewBox="0 0 128 128" fill="none" xmlns="http://www.w3.org/2000/svg">
<rect width="128" height="128" fill="#F5F5F5"/>
<rect width="128" height="128" rx="8" fill="url(#paint0_linear_0_1)"/>
<path d="M92.2083 25.875C94.308 25.875 96.3216 26.7091 97.8063 28.1937C99.2909 29.6784 100.125 31.692 100.125 33.7917V89.2083C100.125 91.308 99.2909 93.3216 97.8063 94.8063C96.3216 96.2909 94.308 97.125 92.2083 97.125H36.7917C34.692 97.125 32.6784 96.2909 31.1937 94.8063C29.7091 93.3216 28.875 91.308 28.875 89.2083V33.7917C28.875 31.692 29.7091 29.6784 31.1937 28.1937C32.6784 26.7091 34.692 25.875 36.7917 25.875H92.2083ZM90.2292 87.2292V66.25C90.2292 62.8276 88.8696 59.5454 86.4496 57.1254C84.0296 54.7054 80.7474 53.3458 77.325 53.3458C73.9604 53.3458 70.0417 55.4042 68.1417 58.4917V54.0979H57.0979V87.2292H68.1417V67.7146C68.1417 64.6667 70.5958 62.1729 73.6438 62.1729C75.1135 62.1729 76.523 62.7568 77.5623 63.796C78.6016 64.8353 79.1854 66.2448 79.1854 67.7146V87.2292H90.2292ZM44.2333 47.8833C45.997 47.8833 47.6885 47.1827 48.9356 45.9356C50.1827 44.6885 50.8833 42.997 50.8833 41.2333C50.8833 37.5521 47.9146 34.5438 44.2333 34.5438C42.4591 34.5438 40.7576 35.2485 39.5031 36.5031C38.2485 37.7576 37.5438 39.4591 37.5438 41.2333C37.5438 44.9146 40.5521 47.8833 44.2333 47.8833ZM49.7354 87.2292V54.0979H38.7708V87.2292H49.7354Z" fill="#0072B1"/>
<defs>
<linearGradient id="paint0_linear_0_1" x1="64" y1="0" x2="64" y2="128" gradientUnits="userSpaceOnUse">
<stop stop-color="#BBE2F4"/>
<stop offset="1" stop-color="#BBE2F4" stop-opacity="0"/>
</linearGradient>
</defs>
</svg>
